<?xml version="1.0" encoding="UTF-8"?><svg id="Layer_1" xmlns="http://www.w3.org/2000/svg" width="30" height="30" viewBox="0 0 100 100"><path d="M90.36,67.18c8.57,6.57,9.82,19.68,2.08,26.93-5.22,4.89-13.02,5.96-19.41,2.89-3.74-1.8-6.34-4.89-7.99-8.63-1.53-3.47-2.03-7.13-2.07-10.94-.04-4.48-2.11-8.53-5.55-10.92-3.75-2.6-8.43-3.3-12.61-1.55-5.78,2.43-8.49,9.27-8.44,15.01.07,6.98-3.54,13.11-9.84,16.22-6.55,3.24-14.48,2.47-19.88-2.64-3.43-3.24-5.05-7.75-5.17-12.45-.15-6.27,3.27-11.87,8.8-14.83,3.84-2.06,8.12-2.81,12.52-2.84,5.58-.04,10.27-3.26,12.36-8.39,2.52-6.22.04-13.12-6.05-16.11-3.03-1.49-6.28-2.12-9.73-2.19-6.96-.14-12.87-4.09-15.7-10.45C.7,19.59,1.82,11.71,7.15,6.52c3.21-3.13,7.53-4.64,12-4.68,6.77-.07,12.51,3.87,15.26,9.95,2.44,5.38,1.87,8.32,2.45,13.45s3.76,8.77,8.41,10.35c3.45,1.17,7.1,1.11,10.49-.31,4.41-1.85,7.38-5.95,7.57-10.84.17-4.3.59-8.36,2.41-12.28,3.21-6.88,10.21-10.79,17.79-9.6,3.58.56,6.99,1.95,9.59,4.56,5,5.01,6.43,12.71,3.64,19.19-3.27,7.6-11.58,10.79-19.41,10.76-5.92-.03-10.98,3.25-13.03,8.82-2.41,6.54.62,13.39,7.05,16.13,7.46,3.17,12.43.14,18.99,5.17Z"/></svg>
