<?xml version="1.0" encoding="UTF-8"?><svg id="Layer_4" xmlns="http://www.w3.org/2000/svg" width="32" height="32" viewBox="0 0 32 32"><defs><style>.cls-1{fill:#231f20;}</style></defs><path class="cls-1" d="M15.01,14.54c-1.35,0-2.41-.34-3.17-1.02-.76-.68-1.14-1.65-1.14-2.91v-.74h2.91v.79c0,.52.12.92.37,1.18.25.26.59.4,1.02.4s.77-.13,1.02-.4c.24-.26.37-.66.37-1.2V2.08h2.87v8.51c0,1.26-.37,2.24-1.12,2.92-.75.68-1.79,1.02-3.13,1.02Z"/><path class="cls-1" d="M11.22,28.96v-12.29h5.1c.91,0,1.68.13,2.3.4.62.26,1.09.63,1.4,1.09.31.46.47,1.01.47,1.63,0,.47-.1.88-.29,1.25-.2.37-.46.67-.81.91-.34.24-.74.41-1.18.5v.13c.49.02.94.15,1.36.39.42.24.76.58,1.01,1.02.26.43.38.95.38,1.54,0,.66-.17,1.25-.5,1.76-.33.52-.81.92-1.45,1.22-.63.3-1.4.45-2.32.45h-5.47ZM14.13,21.74h1.69c.32,0,.61-.05.87-.16.26-.11.46-.27.6-.47s.22-.46.22-.75c0-.41-.15-.74-.45-.98-.3-.24-.7-.36-1.2-.36h-1.74v2.74ZM14.13,26.61h1.88c.65,0,1.14-.12,1.45-.38.31-.25.47-.59.47-1.03,0-.32-.07-.6-.22-.83-.15-.24-.36-.42-.64-.55-.28-.13-.61-.19-.99-.19h-1.94v2.98Z"/></svg>