<?xml version="1.0" encoding="UTF-8"?><svg id="Signature" xmlns="http://www.w3.org/2000/svg" width="130" height="60" viewBox="0 0 130 60"><defs><style>.cls-1,.cls-2{fill:#231f20;}.cls-2{font-family:Inter-Medium, Inter;font-size:9px;font-variation-settings:'opsz' 14, 'wght' 500;font-weight:500;}.cls-3{letter-spacing:-.03em;}.cls-4{letter-spacing:-.02em;}.cls-5{letter-spacing:-.02em;}.cls-6{letter-spacing:-.02em;}.cls-7{letter-spacing:-.04em;}</style></defs><text class="cls-2" transform="translate(.88 57.2)"><tspan class="cls-3" x="0" y="0">P</tspan><tspan class="cls-5" x="5.55" y="0">r</tspan><tspan class="cls-4" x="8.88" y="0">inci</tspan><tspan class="cls-6" x="23.12" y="0">p</tspan><tspan class="cls-4" x="28.54" y="0">al P</tspan><tspan class="cls-7" x="43.2" y="0">r</tspan><tspan class="cls-4" x="46.28" y="0">oduct Designer</tspan></text><path class="cls-1" d="M7.53,20.54c-2.09,0-3.73-.53-4.9-1.58-1.17-1.05-1.76-2.55-1.76-4.5v-1.15h4.5v1.22c0,.81.19,1.42.57,1.82.38.41.91.61,1.58.61s1.2-.2,1.58-.61c.38-.41.57-1.02.57-1.85V1.28h4.44v13.17c0,1.96-.58,3.46-1.74,4.52-1.16,1.05-2.77,1.58-4.85,1.58Z"/><path class="cls-1" d="M20.41,20.54c-.91,0-1.72-.16-2.43-.47s-1.27-.78-1.67-1.4-.6-1.41-.6-2.34c0-.79.14-1.46.41-2,.28-.54.66-.99,1.15-1.33.49-.34,1.06-.6,1.7-.78s1.32-.3,2.04-.36c.81-.07,1.46-.14,1.95-.22.49-.08.85-.2,1.08-.36.23-.16.34-.39.34-.68v-.05c0-.33-.08-.61-.23-.84-.15-.23-.37-.4-.66-.52-.29-.12-.64-.18-1.05-.18s-.77.06-1.09.18-.58.29-.78.51c-.2.22-.35.48-.43.78l-4.03-.52c.19-.82.56-1.53,1.1-2.15.55-.62,1.27-1.1,2.16-1.44s1.93-.52,3.12-.52c.88,0,1.71.1,2.48.31.77.21,1.44.51,2.02.92s1.03.9,1.35,1.49c.32.59.48,1.27.48,2.04v9.68h-4.18v-2h-.11c-.26.49-.58.91-.98,1.24-.4.33-.85.58-1.38.76-.52.17-1.12.26-1.78.26ZM21.76,17.6c.5,0,.95-.1,1.36-.31.4-.2.72-.48.96-.84.24-.36.36-.77.36-1.24v-1.37c-.13.07-.29.13-.48.19s-.4.11-.63.16c-.23.05-.46.09-.69.13-.23.04-.45.07-.66.11-.43.06-.8.16-1.11.31-.31.14-.54.33-.7.56-.16.23-.24.51-.24.83s.08.58.24.8c.16.22.38.38.65.5.27.11.59.17.94.17Z"/><path class="cls-1" d="M30.61,25.29l1-3.25.56.15c.54.14,1.01.17,1.41.11.4-.06.71-.21.93-.45.22-.24.31-.55.29-.94v-.6s-5.33-14.29-5.33-14.29h4.7l2.13,6.98c.29.95.52,1.91.68,2.87.17.96.36,1.99.59,3.1h-.92c.23-1.11.46-2.14.69-3.11.23-.97.49-1.92.79-2.86l2.28-6.98h4.64l-5.98,15.77c-.29.77-.67,1.44-1.14,2.04-.47.59-1.07,1.05-1.79,1.39-.73.34-1.63.5-2.7.5-.54,0-1.07-.04-1.58-.12-.51-.08-.92-.19-1.26-.31Z"/><path class="cls-1" d="M50.6,12.15v8.14h-4.45V6.03h4.18l.09,3.6h-.19c.35-1.13.89-2.04,1.64-2.74.74-.69,1.75-1.04,3-1.04,1,0,1.86.22,2.6.66.74.44,1.31,1.07,1.72,1.88.41.81.61,1.75.61,2.82v9.08h-4.45v-8.22c0-.8-.2-1.43-.61-1.88-.41-.45-.98-.68-1.71-.68-.48,0-.9.1-1.27.31-.37.21-.66.51-.86.9-.2.39-.31.87-.31,1.43Z"/><path class="cls-1" d="M66.09,20.54c-.91,0-1.72-.16-2.43-.47s-1.27-.78-1.67-1.4-.6-1.41-.6-2.34c0-.79.14-1.46.41-2,.28-.54.66-.99,1.15-1.33.49-.34,1.06-.6,1.7-.78s1.32-.3,2.04-.36c.81-.07,1.46-.14,1.95-.22.49-.08.85-.2,1.08-.36.23-.16.34-.39.34-.68v-.05c0-.33-.08-.61-.23-.84-.15-.23-.37-.4-.66-.52-.29-.12-.64-.18-1.05-.18s-.77.06-1.09.18-.58.29-.78.51c-.2.22-.35.48-.43.78l-4.03-.52c.19-.82.56-1.53,1.1-2.15.55-.62,1.27-1.1,2.16-1.44s1.93-.52,3.12-.52c.88,0,1.71.1,2.48.31.77.21,1.44.51,2.02.92s1.03.9,1.35,1.49c.32.59.48,1.27.48,2.04v9.68h-4.18v-2h-.11c-.26.49-.58.91-.98,1.24-.4.33-.85.58-1.38.76-.52.17-1.12.26-1.78.26ZM67.44,17.6c.5,0,.95-.1,1.36-.31.4-.2.72-.48.96-.84.24-.36.36-.77.36-1.24v-1.37c-.13.07-.29.13-.48.19s-.4.11-.63.16c-.23.05-.46.09-.69.13-.23.04-.45.07-.66.11-.43.06-.8.16-1.11.31-.31.14-.54.33-.7.56-.16.23-.24.51-.24.83s.08.58.24.8c.16.22.38.38.65.5.27.11.59.17.94.17Z"/><path class="cls-1" d="M1.67,42.86v-19.01h7.88c1.41,0,2.6.2,3.56.61.96.41,1.68.97,2.16,1.69.48.72.72,1.56.72,2.52,0,.72-.15,1.37-.45,1.93-.3.57-.72,1.03-1.25,1.4-.53.37-1.14.63-1.83.77v.2c.76.03,1.46.23,2.11.61.65.38,1.17.9,1.57,1.58.4.67.59,1.47.59,2.39,0,1.02-.26,1.93-.77,2.73-.51.8-1.26,1.43-2.24,1.89-.98.46-2.17.69-3.59.69H1.67ZM6.17,31.69h2.62c.5,0,.95-.08,1.35-.26.4-.17.71-.41.93-.73s.34-.71.34-1.17c0-.64-.23-1.14-.69-1.52-.46-.37-1.08-.56-1.85-.56h-2.69v4.24ZM6.17,39.23h2.91c1.01,0,1.76-.19,2.24-.58.48-.39.72-.92.72-1.6,0-.49-.11-.92-.34-1.29-.23-.37-.56-.65-.99-.85-.43-.2-.94-.3-1.54-.3h-3v4.62Z"/><path class="cls-1" d="M25.01,43.13c-1.49,0-2.77-.3-3.85-.89-1.08-.59-1.91-1.44-2.48-2.53-.57-1.1-.86-2.41-.86-3.93s.29-2.75.86-3.85c.57-1.11,1.39-1.97,2.44-2.58,1.05-.62,2.3-.93,3.73-.93,1,0,1.92.16,2.76.47.84.31,1.56.78,2.18,1.4.62.62,1.09,1.38,1.43,2.28.34.9.5,1.94.5,3.13v1.12h-12.32v-2.59h10.21l-2.08.61c0-.66-.1-1.23-.3-1.71-.2-.48-.5-.84-.89-1.1-.39-.26-.88-.38-1.45-.38s-1.07.13-1.47.39c-.4.26-.7.62-.91,1.08-.21.46-.31,1.01-.31,1.63v1.86c0,.73.12,1.34.36,1.83.24.49.58.85,1.01,1.1.43.24.94.36,1.52.36.4,0,.76-.06,1.09-.17.33-.11.61-.28.84-.5.23-.22.41-.49.53-.8l3.97.65c-.24.82-.65,1.53-1.23,2.14-.58.61-1.32,1.08-2.21,1.41-.89.33-1.91.5-3.07.5Z"/><path class="cls-1" d="M33.4,42.86v-14.26h4.33v2.6h.15c.26-.94.68-1.64,1.27-2.1.59-.45,1.28-.68,2.06-.68.2,0,.42.01.64.04.23.03.43.06.62.11v3.88c-.21-.08-.49-.13-.84-.17s-.65-.06-.93-.06c-.54,0-1.03.12-1.47.36-.43.24-.77.58-1.02,1-.25.43-.37.92-.37,1.49v7.78h-4.45Z"/><path class="cls-1" d="M49.57,48.5c-1.24,0-2.33-.16-3.25-.47-.93-.31-1.68-.75-2.25-1.31-.57-.56-.95-1.21-1.12-1.95l3.87-.79c.09.26.24.49.47.71.23.22.53.39.91.52.37.13.82.2,1.35.2.91,0,1.61-.2,2.1-.61.49-.41.73-1.04.73-1.89v-2.53h-.34c-.17.43-.42.81-.76,1.16-.34.35-.76.63-1.28.83-.51.2-1.13.31-1.83.31-1.05,0-2-.24-2.86-.73-.86-.49-1.55-1.25-2.07-2.27-.52-1.02-.78-2.34-.78-3.94s.27-3.04.8-4.12c.54-1.08,1.24-1.88,2.1-2.41.86-.52,1.8-.78,2.8-.78.76,0,1.41.13,1.95.38.54.26.99.58,1.34.99s.62.82.8,1.26h.13v-2.45h4.4v13.95c0,1.31-.3,2.41-.91,3.29-.61.88-1.45,1.55-2.53,2-1.08.45-2.33.67-3.75.67ZM49.68,39.41c.57,0,1.05-.14,1.45-.43.4-.29.71-.71.92-1.27.21-.56.32-1.22.32-1.98s-.11-1.46-.32-2.03c-.21-.57-.52-1.01-.91-1.32-.4-.31-.88-.47-1.46-.47s-1.05.16-1.45.48c-.4.32-.7.76-.9,1.33-.2.57-.31,1.24-.31,2s.1,1.42.31,1.98.5.98.9,1.27c.4.29.88.44,1.45.44Z"/><path class="cls-1" d="M65.69,43.13c-1.49,0-2.77-.3-3.85-.89-1.08-.59-1.91-1.44-2.48-2.53-.57-1.1-.86-2.41-.86-3.93s.29-2.75.86-3.85c.57-1.11,1.39-1.97,2.44-2.58,1.05-.62,2.3-.93,3.73-.93,1,0,1.92.16,2.76.47.84.31,1.56.78,2.18,1.4.62.62,1.09,1.38,1.43,2.28.34.9.5,1.94.5,3.13v1.12h-12.32v-2.59h10.21l-2.08.61c0-.66-.1-1.23-.3-1.71-.2-.48-.5-.84-.89-1.1-.39-.26-.88-.38-1.45-.38s-1.07.13-1.47.39c-.4.26-.7.62-.91,1.08-.21.46-.31,1.01-.31,1.63v1.86c0,.73.12,1.34.36,1.83.24.49.58.85,1.01,1.1.43.24.94.36,1.52.36.4,0,.76-.06,1.09-.17.33-.11.61-.28.84-.5.23-.22.41-.49.53-.8l3.97.65c-.24.82-.65,1.53-1.23,2.14-.58.61-1.32,1.08-2.21,1.41-.89.33-1.91.5-3.07.5Z"/><path class="cls-1" d="M74.08,42.86v-14.26h4.33v2.6h.15c.26-.94.68-1.64,1.27-2.1.59-.45,1.28-.68,2.06-.68.2,0,.42.01.64.04.23.03.43.06.62.11v3.88c-.21-.08-.49-.13-.84-.17s-.65-.06-.93-.06c-.54,0-1.03.12-1.47.36-.43.24-.77.58-1.02,1-.25.43-.37.92-.37,1.49v7.78h-4.45Z"/><path class="cls-1" d="M90.41,43.13c-1.22,0-2.29-.17-3.23-.52-.94-.34-1.7-.84-2.28-1.49-.59-.65-.97-1.43-1.14-2.34l4.13-.65c.18.62.48,1.09.91,1.4.43.31,1.02.47,1.77.47.62,0,1.11-.11,1.47-.33.36-.22.54-.5.54-.86,0-.33-.14-.6-.43-.8-.29-.2-.73-.36-1.32-.48l-2.49-.48c-1.41-.27-2.47-.75-3.17-1.44-.7-.68-1.05-1.58-1.05-2.67,0-.95.26-1.76.77-2.44.51-.67,1.24-1.19,2.18-1.55.94-.36,2.05-.54,3.32-.54,1.19,0,2.23.16,3.11.48.88.32,1.59.77,2.13,1.37.54.59.89,1.29,1.05,2.11l-3.93.63c-.13-.48-.39-.85-.78-1.12-.4-.27-.9-.4-1.5-.4-.54,0-.99.11-1.36.33-.37.22-.56.51-.56.87,0,.29.11.54.34.76.23.22.65.39,1.26.5l2.73.51c1.41.27,2.46.72,3.16,1.35.69.63,1.04,1.46,1.04,2.5,0,.98-.29,1.83-.86,2.55-.57.72-1.36,1.28-2.37,1.68-1,.4-2.16.59-3.46.59Z"/><path class="cls-1" d="M105.35,43.13c-1.49,0-2.77-.31-3.84-.92-1.07-.62-1.89-1.48-2.47-2.58-.57-1.1-.86-2.38-.86-3.85s.29-2.76.86-3.86c.57-1.1,1.4-1.96,2.47-2.58s2.35-.93,3.84-.93,2.77.31,3.84.93c1.07.62,1.89,1.48,2.46,2.58.57,1.1.85,2.39.85,3.86s-.29,2.75-.85,3.85c-.57,1.1-1.39,1.96-2.46,2.58-1.07.62-2.35.92-3.84.92ZM105.35,39.73c.57,0,1.05-.17,1.44-.5s.69-.8.89-1.39c.2-.6.3-1.29.3-2.08s-.1-1.48-.3-2.07c-.2-.59-.5-1.05-.89-1.37-.39-.32-.87-.48-1.44-.48s-1.05.16-1.44.48c-.39.32-.69.78-.89,1.37-.2.59-.3,1.28-.3,2.07s.1,1.48.3,2.08c.2.6.5,1.06.89,1.39s.87.5,1.44.5Z"/><path class="cls-1" d="M118.71,34.72v8.14h-4.45v-14.26h4.18l.09,3.6h-.19c.35-1.13.9-2.04,1.64-2.74.74-.69,1.75-1.04,3-1.04,1,0,1.86.22,2.6.66.74.44,1.31,1.07,1.72,1.88.41.81.61,1.75.61,2.82v9.08h-4.45v-8.22c0-.8-.2-1.43-.61-1.88-.41-.45-.98-.68-1.71-.68-.48,0-.9.1-1.27.31-.37.21-.66.51-.86.9-.2.39-.31.87-.31,1.43Z"/></svg>