<?xml version="1.0" encoding="UTF-8"?><svg id="Layer_1" xmlns="http://www.w3.org/2000/svg" width="240" height="34" viewBox="0 0 240 34"><defs><style>.cls-1{fill:#231f20;}</style></defs><path class="cls-1" d="M20.18,24.41c-.67-.7-1.01-1.63-1.01-2.78,0-.96.25-1.75.75-2.38.5-.63,1.11-1.11,1.82-1.46.71-.34,1.63-.7,2.74-1.09,1.17-.41,2.03-.77,2.58-1.1.54-.33.82-.78.82-1.36v-2.5c0-.9-.21-1.59-.62-2.1-.42-.5-1.06-.75-1.94-.75-1.02,0-1.8.26-2.34.77.6.21,1.06.53,1.39.96.33.43.5.93.5,1.5,0,.73-.25,1.3-.74,1.73-.49.43-1.09.64-1.79.64-.75,0-1.32-.23-1.73-.7-.41-.47-.61-1.06-.61-1.76,0-.6.14-1.1.43-1.52s.73-.81,1.33-1.17c.58-.34,1.29-.61,2.13-.8.84-.19,1.77-.29,2.77-.29s1.95.11,2.72.32c.77.21,1.41.58,1.92,1.09.47.47.78,1.05.94,1.73.16.68.24,1.61.24,2.78v8.7c0,.51.05.87.14,1.09.1.21.28.32.56.32.32,0,.7-.18,1.15-.54l.32.54c-.96.79-2.13,1.18-3.52,1.18-1.17,0-2-.23-2.46-.7-.47-.47-.72-1.1-.74-1.89-1.07,1.73-2.64,2.59-4.7,2.59-1.37,0-2.38-.35-3.06-1.06ZM27.88,22.1v-6.56c-.26.43-.8.9-1.63,1.41-.83.53-1.46,1.07-1.89,1.6-.43.53-.64,1.3-.64,2.3,0,.87.18,1.52.54,1.94.36.42.84.62,1.44.62.83,0,1.56-.44,2.18-1.31Z"/><path class="cls-1" d="M50.15,8.69v.64c-.45.13-.85.4-1.2.82-.35.42-.69,1.06-1.01,1.94l-5.73,16.1c-.43,1.11-.9,1.87-1.41,2.27-.62.53-1.55.8-2.78.8-.9,0-1.7-.22-2.42-.66-.72-.44-1.07-1.07-1.07-1.9,0-.66.23-1.19.7-1.58.47-.39,1.09-.59,1.86-.59.73,0,1.31.18,1.74.53.44.35.66.85.66,1.49,0,.45-.14.86-.42,1.23-.28.37-.67.66-1.18.85.15.02.39.03.74.03,1.32,0,2.29-.84,2.91-2.53l.51-1.54-6.78-15.43c-.34-.72-.67-1.2-.99-1.44-.32-.23-.65-.35-.99-.35v-.67c1.41.13,2.87.19,4.38.19,1.26,0,2.74-.06,4.45-.19v.67c-.68,0-1.19.05-1.52.14-.33.1-.5.35-.5.75,0,.24.07.53.22.9l3.9,9.44,2.21-6.14c.34-1,.51-1.86.51-2.56,0-1.56-.79-2.41-2.37-2.56v-.64c1,.06,2.04.1,3.1.1s1.89-.03,2.46-.1Z"/><path class="cls-1" d="M65.74,9.49c.36.41.62.93.77,1.57.15.64.22,1.5.22,2.59v8.61c0,.87.15,1.48.46,1.81.31.33.84.5,1.58.5v.67c-2.13-.09-3.54-.13-4.22-.13-.64,0-2.03.04-4.16.13v-.67c.64,0,1.09-.17,1.34-.5.26-.33.38-.93.38-1.81v-9.95c0-.87-.14-1.54-.43-1.98-.29-.45-.81-.67-1.55-.67-.88,0-1.62.36-2.24,1.07-.62.72-.93,1.6-.93,2.64v8.9c0,.87.13,1.48.38,1.81.26.33.7.5,1.34.5v.67c-1.96-.09-3.29-.13-3.97-.13-.64,0-2.11.04-4.42.13v-.67c.77,0,1.3-.17,1.6-.5.3-.33.45-.93.45-1.81v-10.08c0-.98-.15-1.7-.45-2.14-.3-.45-.83-.67-1.6-.67v-.67c.68.06,1.34.1,1.98.1,1.9,0,3.46-.15,4.67-.45v2.88c.96-1.98,2.71-2.98,5.25-2.98,1.62,0,2.79.42,3.52,1.25Z"/><path class="cls-1" d="M70.33,24.41c-.67-.7-1.01-1.63-1.01-2.78,0-.96.25-1.75.75-2.38.5-.63,1.11-1.11,1.82-1.46.71-.34,1.63-.7,2.74-1.09,1.17-.41,2.03-.77,2.58-1.1.54-.33.82-.78.82-1.36v-2.5c0-.9-.21-1.59-.62-2.1-.42-.5-1.06-.75-1.94-.75-1.02,0-1.8.26-2.34.77.6.21,1.06.53,1.39.96.33.43.5.93.5,1.5,0,.73-.25,1.3-.74,1.73-.49.43-1.09.64-1.79.64-.75,0-1.32-.23-1.73-.7-.41-.47-.61-1.06-.61-1.76,0-.6.14-1.1.43-1.52s.73-.81,1.33-1.17c.58-.34,1.29-.61,2.13-.8.84-.19,1.77-.29,2.77-.29s1.95.11,2.72.32c.77.21,1.41.58,1.92,1.09.47.47.78,1.05.94,1.73.16.68.24,1.61.24,2.78v8.7c0,.51.05.87.14,1.09.1.21.28.32.56.32.32,0,.7-.18,1.15-.54l.32.54c-.96.79-2.13,1.18-3.52,1.18-1.17,0-2-.23-2.46-.7-.47-.47-.72-1.1-.74-1.89-1.07,1.73-2.64,2.59-4.7,2.59-1.37,0-2.38-.35-3.06-1.06ZM78.03,22.1v-6.56c-.26.43-.8.9-1.63,1.41-.83.53-1.46,1.07-1.89,1.6-.43.53-.64,1.3-.64,2.3,0,.87.18,1.52.54,1.94.36.42.84.62,1.44.62.83,0,1.56-.44,2.18-1.31Z"/><path class="cls-1" d="M110.63,15.35c1.3,1.07,1.95,2.33,1.95,3.78,0,1.98-.78,3.52-2.34,4.59-1.56,1.08-3.72,1.62-6.5,1.62-.62,0-1.14-.01-1.57-.03-1.41-.04-2.78-.06-4.13-.06-2.2,0-3.84.03-4.93.1v-.64c.7-.04,1.22-.13,1.55-.26.33-.13.55-.37.67-.74.12-.36.18-.95.18-1.76V6.07c0-.81-.06-1.4-.18-1.76-.12-.36-.34-.61-.67-.74-.33-.13-.85-.21-1.55-.26v-.64c1.09.06,2.71.1,4.86.1l3.55-.03c.43-.02.92-.03,1.47-.03,2.56,0,4.52.46,5.87,1.38,1.35.92,2.03,2.13,2.03,3.65,0,1.24-.54,2.39-1.62,3.46-1.08,1.07-2.67,1.79-4.78,2.18v.06c2.77.21,4.81.85,6.11,1.92ZM101.34,3.54c-.27.15-.45.42-.56.8-.11.38-.16.96-.16,1.73v7.23h1.38c1.39,0,2.36-.47,2.91-1.42.55-.95.83-2.21.83-3.79s-.25-2.79-.75-3.58c-.5-.79-1.3-1.18-2.38-1.18-.58,0-1,.08-1.26.22ZM107.27,19c0-1.68-.43-2.97-1.28-3.84-.85-.87-2.2-1.31-4.03-1.31h-1.34v8.1c0,.77.05,1.33.16,1.7.11.36.31.61.62.75.31.14.78.21,1.42.21,2.97,0,4.45-1.87,4.45-5.6Z"/><path class="cls-1" d="M127.15,20.6l.58.19c-.43,1.39-1.19,2.57-2.29,3.54-1.1.97-2.47,1.46-4.11,1.46-2.26,0-4.06-.72-5.39-2.16-1.33-1.44-2-3.57-2-6.38s.71-5.08,2.14-6.61c1.43-1.53,3.33-2.29,5.7-2.29,4.01,0,6.02,2.37,6.02,7.1h-8.99c-.02.32-.03.82-.03,1.5,0,1.41.2,2.58.59,3.52.39.94.91,1.62,1.54,2.05.63.43,1.31.64,2.03.64,1.75,0,3.16-.85,4.22-2.56ZM119.68,10.44c-.5.95-.82,2.42-.94,4.4h5.02c.04-1.68-.12-3.08-.5-4.18-.37-1.1-.93-1.65-1.68-1.65s-1.4.47-1.9,1.42Z"/><path class="cls-1" d="M141.84,9.21c.49.58.74,1.27.74,2.08s-.23,1.44-.69,1.94c-.46.5-1.06.75-1.81.75s-1.3-.19-1.73-.56c-.43-.37-.64-.87-.64-1.49,0-1.02.47-1.86,1.41-2.5-.09-.02-.21-.03-.38-.03-.21,0-.38.02-.51.06-.81.13-1.5.62-2.06,1.47-.57.85-.85,1.73-.85,2.62v8.48c0,.98.24,1.66.72,2.05.48.38,1.24.58,2.29.58v.67c-.3,0-.54-.01-.74-.03-2.18-.06-3.63-.1-4.35-.1-.58,0-1.89.03-3.94.1-.17.02-.38.03-.64.03v-.67c.77,0,1.3-.17,1.6-.5.3-.33.45-.93.45-1.81v-10.08c0-.98-.15-1.7-.45-2.14-.3-.45-.83-.67-1.6-.67v-.67c.68.06,1.34.1,1.98.1,1.9,0,3.46-.15,4.67-.45v2.98c.41-.92.99-1.66,1.76-2.22.77-.57,1.63-.85,2.59-.85s1.69.29,2.18.86Z"/><path class="cls-1" d="M156.88,11.43c-.3-.29-.45-.7-.45-1.23s.13-1.03.38-1.57c-.51.21-.93.45-1.26.72-.33.27-.61.6-.85,1.01.66.79.99,1.81.99,3.07,0,1.69-.58,2.96-1.74,3.81-1.16.85-2.7,1.28-4.62,1.28h-.58c-.88.51-1.31,1.08-1.31,1.7,0,.68.43,1.02,1.28,1.02h3.49c1.88,0,3.38.35,4.5,1.04,1.12.69,1.68,1.76,1.68,3.18,0,1.09-.35,2.07-1.04,2.96-.69.89-1.74,1.59-3.15,2.13-1.41.53-3.14.8-5.18.8s-3.73-.26-4.98-.78c-1.25-.52-1.87-1.28-1.87-2.26,0-.66.3-1.25.9-1.78.6-.52,1.48-.93,2.66-1.23l.29.51c-.77.64-1.15,1.38-1.15,2.21,0,.9.41,1.58,1.22,2.06.81.48,1.93.72,3.36.72s2.7-.3,3.63-.9c.93-.6,1.39-1.44,1.39-2.53,0-.7-.26-1.26-.78-1.66-.52-.41-1.44-.61-2.74-.61h-1.98c-1.37,0-2.43-.23-3.2-.69-.77-.46-1.15-1.16-1.15-2.1,0-.79.28-1.49.83-2.11.55-.62,1.4-1.22,2.53-1.79-1.54-.19-2.75-.7-3.65-1.54s-1.34-1.98-1.34-3.46c0-1.68.58-2.95,1.74-3.81,1.16-.85,2.7-1.28,4.62-1.28,2.13,0,3.77.5,4.9,1.5.41-.58.91-1.03,1.5-1.38.6-.34,1.2-.51,1.82-.51s1.15.19,1.52.56c.37.37.56.86.56,1.46s-.17,1.06-.5,1.39-.72.5-1.17.5-.79-.14-1.09-.43ZM150.69,16.92c.31-.68.46-1.85.46-3.49s-.15-2.81-.46-3.49c-.31-.68-.76-1.02-1.36-1.02s-1.05.34-1.36,1.02c-.31.68-.46,1.85-.46,3.49s.15,2.81.46,3.49c.31.68.76,1.02,1.36,1.02s1.05-.34,1.36-1.02Z"/><path class="cls-1" d="M172.81,20.6l.58.19c-.43,1.39-1.19,2.57-2.29,3.54-1.1.97-2.47,1.46-4.11,1.46-2.26,0-4.06-.72-5.39-2.16-1.33-1.44-2-3.57-2-6.38s.71-5.08,2.14-6.61c1.43-1.53,3.33-2.29,5.7-2.29,4.01,0,6.02,2.37,6.02,7.1h-8.99c-.02.32-.03.82-.03,1.5,0,1.41.2,2.58.59,3.52.39.94.91,1.62,1.54,2.05.63.43,1.31.64,2.03.64,1.75,0,3.16-.85,4.22-2.56ZM165.34,10.44c-.5.95-.82,2.42-.94,4.4h5.02c.04-1.68-.12-3.08-.5-4.18-.37-1.1-.93-1.65-1.68-1.65s-1.4.47-1.9,1.42Z"/><path class="cls-1" d="M187.5,9.21c.49.58.74,1.27.74,2.08s-.23,1.44-.69,1.94c-.46.5-1.06.75-1.81.75s-1.3-.19-1.73-.56c-.43-.37-.64-.87-.64-1.49,0-1.02.47-1.86,1.41-2.5-.09-.02-.21-.03-.38-.03-.21,0-.38.02-.51.06-.81.13-1.5.62-2.06,1.47-.57.85-.85,1.73-.85,2.62v8.48c0,.98.24,1.66.72,2.05.48.38,1.24.58,2.29.58v.67c-.3,0-.54-.01-.74-.03-2.18-.06-3.63-.1-4.35-.1-.58,0-1.89.03-3.94.1-.17.02-.38.03-.64.03v-.67c.77,0,1.3-.17,1.6-.5.3-.33.45-.93.45-1.81v-10.08c0-.98-.15-1.7-.45-2.14-.3-.45-.83-.67-1.6-.67v-.67c.68.06,1.34.1,1.98.1,1.9,0,3.46-.15,4.67-.45v2.98c.41-.92.99-1.66,1.76-2.22.77-.57,1.63-.85,2.59-.85s1.69.29,2.18.86Z"/><path class="cls-1" d="M197.04,8.65c.68.2,1.2.43,1.57.69.21.15.41.22.58.22.19,0,.36-.1.5-.3.14-.2.23-.5.27-.88h.67c-.09,1.09-.13,2.97-.13,5.63h-.67c-.19-1.41-.61-2.59-1.26-3.54-.65-.95-1.59-1.42-2.83-1.42-.64,0-1.17.18-1.58.54-.42.36-.62.86-.62,1.5,0,.73.25,1.35.74,1.87.49.52,1.26,1.16,2.3,1.9l.93.67c1.3.98,2.26,1.86,2.88,2.62.62.77.93,1.73.93,2.88,0,.94-.27,1.77-.82,2.5-.54.73-1.28,1.28-2.19,1.66-.92.38-1.93.58-3.04.58-1.17,0-2.18-.22-3.01-.67-.68-.34-1.17-.57-1.47-.67-.21-.06-.4,0-.56.21-.16.2-.28.51-.37.91h-.67c.08-1.22.13-3.35.13-6.4h.67c.43,3.93,1.87,5.89,4.32,5.89.62,0,1.15-.19,1.58-.56.44-.37.66-.94.66-1.71,0-.6-.13-1.13-.4-1.6-.27-.47-.6-.89-1.01-1.25-.41-.36-1.01-.86-1.82-1.5-.96-.77-1.69-1.39-2.19-1.86-.5-.47-.93-1.02-1.28-1.66s-.53-1.35-.53-2.14c0-1.37.53-2.44,1.6-3.23,1.07-.79,2.37-1.18,3.9-1.18.81,0,1.56.1,2.24.3Z"/><path class="cls-1" d="M216.46,10.44c1.39,1.4,2.08,3.61,2.08,6.64s-.69,5.24-2.08,6.62c-1.39,1.39-3.31,2.08-5.76,2.08s-4.35-.69-5.74-2.08c-1.4-1.39-2.1-3.59-2.1-6.62s.7-5.24,2.1-6.64c1.4-1.4,3.31-2.1,5.74-2.1s4.37.7,5.76,2.1ZM208.51,10.99c-.54,1.33-.82,3.37-.82,6.1s.27,4.76.82,6.08c.54,1.32,1.27,1.98,2.19,1.98s1.67-.66,2.21-1.97c.53-1.31.8-3.34.8-6.1s-.27-4.79-.82-6.11c-.54-1.32-1.27-1.98-2.19-1.98s-1.65.67-2.19,2Z"/><path class="cls-1" d="M235.15,9.59c.36.41.62.93.77,1.57.15.64.22,1.5.22,2.59v8.61c0,.87.15,1.48.46,1.81.31.33.84.5,1.58.5v.67c-2.13-.09-3.54-.13-4.22-.13-.64,0-2.03.04-4.16.13v-.67c.64,0,1.09-.17,1.34-.5.26-.33.38-.93.38-1.81v-9.95c0-.87-.14-1.54-.43-1.98-.29-.45-.81-.67-1.55-.67-.87,0-1.62.36-2.24,1.07-.62.72-.93,1.6-.93,2.64v8.9c0,.87.13,1.48.38,1.81.26.33.7.5,1.34.5v.67c-1.96-.09-3.29-.13-3.97-.13-.64,0-2.11.04-4.42.13v-.67c.77,0,1.3-.17,1.6-.5.3-.33.45-.93.45-1.81v-10.08c0-.98-.15-1.7-.45-2.14-.3-.45-.83-.67-1.6-.67v-.67c.68.06,1.34.1,1.98.1,1.9,0,3.46-.15,4.67-.45v2.88c.96-1.98,2.71-2.98,5.25-2.98,1.62,0,2.79.42,3.52,1.25Z"/><path class="cls-1" d="M13.77,2.68c-2.16,0-3.77-.03-4.83-.1v.64c.7.04,1.22.13,1.55.26.33.13.55.37.67.74.12.36.18.95.18,1.76v17.54c0,1.75-.16,3.13-.46,4.14-.31,1.01-.76,1.74-1.34,2.18-.59.44-1.33.7-2.22.78v.03c-.12,0-.24,0-.35,0-.45,0-.78-.01-.97-.04.68-.25,1.2-.63,1.56-1.12.37-.49.55-1.04.55-1.63,0-.85-.29-1.5-.87-1.97-.58-.47-1.35-.7-2.3-.7-1.01,0-1.83.26-2.45.78-.62.52-.93,1.22-.93,2.09,0,1.1.47,1.94,1.42,2.52.94.58,2.01.87,3.19.87.74,0,1.4-.08,1.97-.22,1.98-.1,3.61-.57,4.9-1.42,1.46-.96,2.42-2.22,2.86-3.78.36-1.26.54-3.39.54-6.4V5.97c0-.81.06-1.4.18-1.76.12-.36.34-.61.66-.74.32-.13.84-.21,1.57-.26v-.64c-1.17.06-2.86.1-5.06.1Z"/></svg>