<?xml version="1.0" encoding="UTF-8"?><svg id="Layer_1" xmlns="http://www.w3.org/2000/svg" width="50" height="50" viewBox="0 0 50 50"><defs><style>.cls-1{fill:#231f20;}</style></defs><path class="cls-1" d="M34.89,37.66c1.12.92,1.68,2,1.68,3.24,0,1.7-.67,3.02-2.01,3.94-1.34.92-3.2,1.39-5.58,1.39-.53,0-.98,0-1.35-.03-1.21-.04-2.39-.05-3.54-.05-1.89,0-3.3.03-4.23.08v-.55c.6-.04,1.05-.11,1.33-.22.28-.11.48-.32.58-.63.1-.31.15-.81.15-1.51v-13.62c0-.7-.05-1.2-.15-1.51-.1-.31-.29-.52-.58-.63-.28-.11-.73-.18-1.33-.22v-.55c.93.05,2.33.08,4.18.08l3.05-.03c.37-.02.79-.03,1.26-.03,2.2,0,3.88.39,5.04,1.18,1.16.79,1.74,1.83,1.74,3.13,0,1.06-.46,2.05-1.39,2.97-.92.92-2.29,1.54-4.11,1.87v.05c2.38.18,4.13.73,5.25,1.65ZM26.91,27.52c-.23.13-.39.36-.48.69-.09.33-.14.82-.14,1.48v6.21h1.18c1.19,0,2.02-.41,2.5-1.22.48-.81.71-1.9.71-3.25s-.22-2.4-.65-3.08c-.43-.68-1.11-1.02-2.05-1.02-.49,0-.86.06-1.08.19ZM32.01,40.79c0-1.45-.37-2.54-1.1-3.3-.73-.75-1.89-1.13-3.46-1.13h-1.15v6.95c0,.66.05,1.14.14,1.46.09.31.27.53.54.65.27.12.67.18,1.22.18,2.54,0,3.82-1.6,3.82-4.81Z"/><path class="cls-1" d="M23.85,3.13c-1.85,0-3.23-.03-4.15-.08v.55c.6.04,1.05.11,1.33.22.28.11.48.32.58.63.1.31.15.81.15,1.51v15.05c0,1.5-.13,2.69-.4,3.56-.27.87-.65,1.49-1.15,1.87-.37.27-.81.46-1.31.58-.28.04-.56.06-.82.06-.39,0-.67-.01-.83-.04.58-.22,1.03-.54,1.34-.96.31-.42.47-.89.47-1.4,0-.73-.25-1.29-.74-1.69-.5-.4-1.16-.6-1.98-.6-.87,0-1.57.22-2.1.67-.53.45-.8,1.05-.8,1.8,0,.94.4,1.66,1.22,2.16.81.5,1.72.74,2.74.74.49,0,.93-.04,1.34-.11,1.82-.06,3.31-.46,4.48-1.22,1.25-.82,2.07-1.9,2.46-3.24.31-1.08.47-2.91.47-5.49V5.96c0-.7.05-1.2.15-1.51.1-.31.29-.52.56-.63.27-.11.72-.18,1.35-.22v-.55c-1.01.05-2.45.08-4.34.08Z"/></svg>