<?xml version="1.0" encoding="UTF-8"?><svg id="Layer_1" xmlns="http://www.w3.org/2000/svg" width="70" height="70" viewBox="0 0 70 70"><path d="M70,25.3c0,13.79-11.17,24.97-24.96,24.97s-24.96-11.18-24.96-24.97S31.26.32,45.04.32s24.96,11.18,24.96,24.97ZM66.92,25.25c0-12.1-9.8-21.9-21.89-21.9s-21.89,9.81-21.89,21.9,9.8,21.9,21.89,21.9,21.89-9.81,21.89-21.9Z"/><path d="M26.41,46.72c.44-.44,1.48-.43,1.81-.18s.63,1.5.29,1.84l-20.27,20.52c-.72.73-2.17,1.07-2.85.44l-4.32-3.95C.51,64.89-.02,63.86,0,63.19s.48-1.68,1.09-2.28l19.8-19.62c.29-.29,1.33-.3,1.69-.15.42.17.84,1.26.51,1.6l-4.24,4.34L2.54,63.25l3.98,3.59,19.89-20.12Z"/></svg>