<?xml version="1.0" encoding="UTF-8"?><svg id="Layer_1" xmlns="http://www.w3.org/2000/svg" width="70" height="70" viewBox="0 0 70 70"><path d="M33.99,36.73l4.6-4.72c.29-.3,1.17-.15,1.43.14,1.26,1.39-1.68,2.55-2.47,4.21l14.22-.07c3.54-.02,6.92-1.7,8.98-4.57,2.25-3.15,2.49-7.55.59-10.95-1.73-3.11-5.15-5.05-8.7-5.05l-17.51-.04c-.48,0-1.13-.43-1.3-.78s.17-1.37.56-1.37l19.15.08c6.21.02,10.97,5.34,11.24,11.29.16,3.54-.76,6.65-3.08,9.15-2.47,2.66-5.69,4.36-9.38,4.37l-14.98.05c1.38,1.93,3.47,2.23,2.82,3.94-.12.31-.95.67-1.24.43-1.61-1.3-3.48-3.04-4.96-4.48-.28-.27-.21-1.36.05-1.62Z"/><path d="M66.82,57.83c0,6.72-5.45,12.17-12.16,12.17s-12.16-5.45-12.16-12.17,5.45-12.17,12.16-12.17,12.16,5.45,12.16,12.17ZM64.51,57.85c0-5.45-4.42-9.88-9.87-9.88s-9.87,4.42-9.87,9.88,4.42,9.88,9.87,9.88,9.87-4.42,9.87-9.88Z"/><path d="M8.51,54.1c1.99,3.32,5.63,5.07,9.44,5.07h20.3c.54-.01,1.08.52,1.16.93.06.38-.5,1.2-.97,1.2l-20.77.03c-4.04,0-7.81-1.77-10.12-4.77-2.5-3.25-3.52-7.25-2.25-11.29,1.47-4.69,5.79-8.8,10.83-8.82l13.28-.04c.38,0,1.02.62.96.9s-.26.77-.46,1.13l-13.11.09c-2.93.02-5.74,1.74-7.53,3.91-2.76,3.36-3.05,7.86-.77,11.66Z"/><path d="M52.02,62.89l-3.43-3.52c-.24-.25-.22-1.11,0-1.38.25-.31,1.22-.39,1.51-.11l2.76,2.69,5.86-6.41c.42-.45,1.25-.56,1.67-.18.35.32.48,1.28.12,1.68l-6.32,6.99c-.51.56-1.37,1.04-2.17.23Z"/><path d="M8.06,3.21C11.73.32,16.52-.8,21.1.6c3.46,1.05,6.34,3.48,8,6.69,2.26,4.36,1.84,9.43-.71,13.27s-6.23,6.12-10.26,6.44c-4.75.38-8.8-1.43-11.84-4.92-4.5-5.16-4.45-12.91.49-17.75.41-.4.83-.77,1.27-1.12ZM6.35,8.43c-.15.28-.28.57-.41.88-1.2,3.01-1.04,6.44.59,9.26.33.57.72,1.11,1.15,1.61,5.68-4.61,12.68-5.23,18.26-.05,1.72-2.55,2.65-5.36,2.22-8.39-.55-3.87-3.45-7.14-6.61-8.48-2.86-1.22-6.07-1.23-8.94-.04-2.6,1.08-4.95,2.73-6.26,5.21ZM24.48,21.6c-1.73-1.39-3.34-2.03-5.12-2.65-3.64-.82-7.3.27-10.02,3.01,4.24,3.75,11,3.86,15.14-.37Z"/><path d="M21.43,10.29c0,2.58-2.09,4.68-4.68,4.68s-4.68-2.1-4.68-4.68,2.09-4.68,4.68-4.68,4.68,2.1,4.68,4.68ZM17.27,12.75c1.53-.36,1.89-1.92,1.7-3.05-.22-1.28-1.48-2.23-2.87-1.9s-2.05,1.81-1.65,3.2c.26.9,1.47,2.06,2.82,1.74Z"/></svg>