<?xml version="1.0" encoding="UTF-8"?><svg id="Layer_1" xmlns="http://www.w3.org/2000/svg" width="70" height="70" viewBox="0 0 70 70"><path d="M59.45,21.5c5.49,9.1,6.01,20.06.54,29.36-2.41,4.1-5.93,7.2-9.8,9.81.88-.35,1.82-.5,2.42.43.81,1.25,4.73,7.35,4.03,8.34-.13.18-.73.51-1,.49l-3.53-.21-3.34-7.58.17-.76c-15.31,7.81-34.27,3.89-42.77-11.63-4.53-8.28-4.93-18.09-.63-27.18,3.46-7.31,10.56-13.54,19.15-15.82,6.44-1.71,13.13-1.54,19.23,1.35.32.15.76.81.85,1.12s-.32,1.02-.61,1.21c-3.09-1.08-6.08-2.32-9.49-2.5-12.51-.68-24.18,7.06-28.22,18.97-4.6,13.56,2.4,28.49,15.47,33.76,7.19,2.9,15.25,2.78,22.44.01,4.49-1.73,8.24-4.67,11.28-8.28,7.2-8.53,7.33-20.87,1.45-30.29.32-.62,1.67-1.02,2.35-.62Z"/><path d="M49.84,36.62c.41-8.08-4.57-10.07-2.86-11.26s6.09,5.66,4.77,13.59c-1.46,8.79-8.7,14.42-17.31,14.9-7.52.41-14.43-3.22-17.78-9.91-4.84-9.69-.52-21.16,9.42-25.38,8.34-3.54,17.04.13,16.73,2.06-.06.36-.95.84-1.33.65-1.89-.98-3.94-1.87-6.28-2.08-6.91-.64-13.48,3.05-16.65,9.28-2.51,4.92-2.25,10.47.6,15.42,2.43,4.22,7.04,7.24,12.37,7.82,8.91.97,17.82-5.22,18.31-15.08Z"/><path d="M48.67,20.97l-13.64,13.94c-.23.24-1.02.17-1.05-.04s.03-.78.18-.95l5.15-5.69,7.74-8.38-2.14-6.48c-.35-1.07.8-2.73,1.55-3.45L56.08.48c.27-.26,1.07-.48,1.41-.43.39.06.83.77.91,1.22l1.11,5.97,6.82,1.79c.4.11,1.04.67,1.12,1.04.09.43-.22,1.36-.59,1.73l-9.78,9.84c-.53.53-1.78,1.3-2.44,1.1l-5.97-1.78ZM56.13,19.4l8.54-8.6-5.72-1.36c-.73-.17-1.43-1.13-1.58-1.83l-.89-4.38-9.63,9.49,2.15,5.89,4.61,1.46c.97.31,1.72.15,2.53-.66Z"/><path d="M37.32,39.23c1.17-.93,1.81-2.62,1.3-3.9-.24-.61-.31-1.19.14-1.6.42-.37,1.29-.17,1.57.4,1.19,2.41.42,4.94-1.65,6.64-3.51,2.9-9.04,2.1-11.46-1.83-1.87-3.05-1.11-6.83,1.55-8.97,1.71-1.38,4.25-1.65,5.9-.58.35.22.28,1.15.03,1.35-.3.25-1.01.37-1.52.25-2.41-.54-4.54,1.37-4.84,3.85-.26,2.08,1.16,4.02,2.77,4.89,1.96,1.06,4.39.95,6.21-.5Z"/><path d="M12.59,69.18c-.63,1.03-1.76.98-2.84.66-.41-.12-1.36-.72-1.19-1.12,1.18-2.7,2.34-4.8,3.89-7.18l3.2,2.05c-1.04,2.07-1.95,3.76-3.06,5.59Z"/></svg>