<?xml version="1.0" encoding="UTF-8"?><svg id="Layer_1" xmlns="http://www.w3.org/2000/svg" width="70" height="70" viewBox="0 0 70 70"><path d="M4.01,8.64v56.5c0,1.76,1.31,2.81,2.92,2.81l45.19-.02c1.58,0,2.52-1.17,2.52-2.62l.04-6.03c0-.33.48-1,.78-1.06.36-.08,1.18.44,1.19.86.04,2.44.13,4.98-.05,7.38-.18,2.24-2.35,3.54-4.47,3.54l-45.76-.02c-2.42,0-4.46-2.27-4.46-4.66l-.03-56.53c0-2.77,1.81-4.78,4.54-4.78h8.66C15.75,1.37,17.71,0,20.22,0l18.82.02c2.37,0,4.39,1.56,5,3.92l8.9.11c2.41.03,3.79,2.48,3.79,4.66l-.02,25.59c0,.42-.43.97-.72,1.09-.34.15-1.36-.24-1.36-.63V8.72c0-1.22-.89-2.61-2.23-2.63l-8.44-.11c-.61,2.93-2.96,4.1-5.66,4.09l-18.6-.1c-2.3-.01-3.93-1.85-4.6-3.98H6.87c-1.32,0-2.86.89-2.86,2.66ZM38.31,8.08c1.87.01,3.29-.87,3.51-2.74.16-1.41-.93-3.29-2.68-3.28l-19.72.04c-1.47,0-2.34,1.83-2.27,3.01.06,1.04,1.03,2.86,2.49,2.86l18.68.11Z"/><path d="M51.39,59.16l-5.16,2.01c-.41.16-1.37.06-1.66-.22-1.29-1.25.7-6.63,1.49-8.28l10.26-14.45,4.83-6.61c.74-1.01,1.82-.93,2.73-.29l3.94,2.78c.63.45.95,1.46.42,2.2l-15.25,21.4c-.38.54-.97,1.23-1.58,1.46ZM64.31,38.23l1.89-2.78-3.55-2.45-1.87,2.66,3.53,2.57ZM59.53,37.29l-11.28,15.74,3.62,2.59,11.28-15.74-3.62-2.59ZM50.33,57.27c-1.19-1.05-1.8-1.52-2.92-2.3-.62,1.47-.88,2.37-1.06,3.98l3.98-1.68Z"/><rect x="36.64" y="15.2" width="2.09" height="21.09" transform="translate(11.9 63.41) rotate(-89.95)"/><path d="M47.36,41.7h-19.34c-.38.01-.92-.61-.95-.94-.04-.48.5-1.04,1.13-1.04l19.18.03c.29,0,.79.57.9.82.13.31-.43,1.13-.92,1.13Z"/><path d="M13.58,25.65l-2.49-2.25c-.4-.36-.54-1.09-.21-1.49.35-.43,1.15-.43,1.53-.09l2.33,2.03,5.35-5.44c.29-.3,1.15-.5,1.49-.34.39.18.67,1.29.34,1.62l-5.88,5.92c-.65.65-1.7.74-2.45.06Z"/><path d="M13.15,40.36l-2.59-2.46c-.22-.21-.08-1.07.09-1.3.19-.27.92-.44,1.18-.22l2.81,2.39,5.52-5.58c.25-.25,1.19-.14,1.43.09.27.26.47,1.06.16,1.38l-5.67,5.62c-.8.79-1.89,1.07-2.93.09Z"/><path d="M13.59,55.67l-2.84-2.59c-.28-.25-.07-1.16.21-1.34s1.09-.22,1.34,0l2.43,2.12,5.14-4.99c.29-.29,1.25-.2,1.54.02s.46,1.08.14,1.4l-5.51,5.41c-.61.6-1.69.67-2.44-.02Z"/><path d="M39.62,56.58h-11.56c-.46,0-.98-.67-.95-1.11.02-.37.59-.93,1.09-.93l11.62.05c.36,0,.85.63.91.94.08.39-.51,1.05-1.1,1.05Z"/><path d="M37.66,36.59l-9.45.03c-.44,0-1.09-.5-1.13-.86-.06-.49.51-1.26,1.12-1.26l9.75.06c.38,0,.91.87.85,1.21s-.73.81-1.13.81Z"/><path d="M37.72,51.54l-9.61-.03c-.52,0-1.03-.61-1.03-1.1,0-.41.57-.96,1.08-.96h9.4c.43,0,1.08.6,1.14.97s-.56,1.12-.98,1.12Z"/><path d="M37.7,21.28h-9.56c-.43,0-.99-.62-1.04-1.01s.58-1.06,1.05-1.06h9.41c.42,0,1.12.48,1.19.83.11.49-.39,1.24-1.06,1.24Z"/></svg>