<?xml version="1.0" encoding="UTF-8"?><svg id="Layer_1" xmlns="http://www.w3.org/2000/svg" width="70" height="70" viewBox="0 0 70 70"><path d="M37.39,62.13h-1.76s-8.73,0-8.73,0c-.37,0-.64-.46-.64-.8l-.02-3.11c-.01-1.69-1.31-2.83-2.74-2.9-1.36-.07-2.77.91-2.9,2.55-.16,1.96.3,4.25-.79,4.25h-10.58s-1.76,0-1.76,0v-10.91s-3.12-.04-3.12-.04c-2.31-.03-4.21-2.15-4.34-4.54s1.54-4.81,3.95-5.09c1.13-.13,2.25-.03,3.52-.06v-9.99c0-.28.41-.7.66-.7h10.62s.03-2.06.03-2.06c.04-2.82,2.09-4.8,4.64-4.73s4.51,2.07,4.54,4.89l.02,1.92h7.51s1.89.02,1.89.02l.02,1.62v10.05c-.01.46-.35.85-.8.86l-4.39.02c-1.48,0-2.61,1.21-2.73,2.65s.8,3.09,2.32,3.26,3.17.04,4.79.09c.52.04.8.42.8.97v9.96s0,1.85,0,1.85M23.95,53.47c2.15.29,3.76,1.96,3.99,4.22l.05,2.58h7.64s0-9.09,0-9.09h-3.9c-1.95-.3-3.63-1.89-3.99-4.03-.52-3.07,1.77-5.77,4.62-5.67l3.29-.02v-8.87s-8.43,0-8.43,0c-.55,0-.94-.3-.93-.95l-.04-2.92c-.02-1.61-1.24-2.75-2.65-2.88-1.29-.12-2.79.76-2.97,2.36-.13,1.19-.07,2.35-.08,3.58-.03.28-.31.78-.59.78h-10.72s0,10.21,0,10.21c0,.2-.43.51-.61.55l-4.22.03c-1.49.01-2.58,1.44-2.61,2.94-.03,1.37,1.01,2.85,2.44,2.96s2.78.05,4.19.07c.49.09.8.42.8.96v9.96s9.5,0,9.5,0l.03-2.25c.21-2.88,2.46-4.92,5.18-4.55ZM37.39,62.13"/><path d="M44.66,42.16l-1.02-1.43-5.13-7.06c-.21-.3,0-.79.27-.99l2.5-1.84c1.36-1,1.52-2.72.73-3.92-.74-1.14-2.36-1.71-3.77-.85-1.68,1.02-3.26,2.74-3.9,1.86l-6.22-8.56-1.03-1.42,8.83-6.41-1.8-2.55c-1.33-1.89-.73-4.67,1.12-6.18s4.8-1.58,6.44.21c.77.84,1.35,1.8,2.12,2.81L51.89-.04c.23-.16.81-.08.95.12l6.23,8.6,1.69-1.19c2.31-1.63,5.11-1.13,6.56.97s.97,4.87-1.29,6.54l-1.54,1.15,4.41,6.08,1.1,1.54-1.29.97-8.14,5.89c-.37.27-.89.22-1.16-.14l-2.6-3.54c-.87-1.19-2.51-1.41-3.75-.65s-2.03,2.46-1.27,3.79,1.83,2.59,2.74,3.93c.27.44.13.9-.31,1.22l-8.06,5.85-1.5,1.08M43.76,26.2c1.03,1.91.62,4.19-1.07,5.71l-2.06,1.56,4.5,6.18,7.34-5.34-2.29-3.15c-.9-1.76-.6-4.05.92-5.6,2.17-2.22,5.71-1.95,7.3.41l1.95,2.65,7.18-5.21-4.96-6.82c-.33-.45-.31-.94.22-1.31l2.34-1.75c1.29-.97,1.49-2.62.77-3.84-.66-1.12-2.26-1.81-3.66-1.01-1.04.59-1.95,1.33-2.95,2.04-.24.14-.81.21-.98-.01l-6.3-8.67-8.25,5.99c-.16.12-.67-.05-.8-.17l-2.5-3.4c-.88-1.2-2.68-1.24-3.91-.38-1.13.78-1.71,2.49-.96,3.72s1.59,2.28,2.41,3.44c.22.45.13.89-.31,1.21l-8.06,5.85,5.58,7.69,1.84-1.3c2.45-1.52,5.43-.9,6.73,1.52ZM44.66,42.16"/></svg>