<?xml version="1.0" encoding="UTF-8"?><svg id="Layer_1" xmlns="http://www.w3.org/2000/svg" width="70" height="70" viewBox="0 0 70 70"><path d="M55.49,65.67c-3.58-2.67-6.51-5.72-9.92-8.62l-21.03-.14c-2.27-.01-4.93-2.66-4.98-4.8l-.25-10.41c-2.12,1.53-3.5,3.69-5.59,4.84-1.59.87-3.34-1.38-3.35-2.83l-.07-7.9c-1.83-.04-3.29-.04-4.98-.16C2.33,35.41,0,32.63,0,29.6V5.97C.01,2.47,2.8-.06,6.23-.06l38.77.02c3.37.26,5.93,2.82,5.94,6.21l.04,15.3,13.57.18c2.85.04,4.94,2.73,5.45,5.38l-.09,24.6c-.01,3.33-3.51,5.39-6.44,5.4h-3.57c0,2.24.05,3.82-.09,5.94-.11,1.69-2.55,4.03-4.32,2.71ZM23.38,34.33c.44-.42,1.46-.79,1.97-.79l19.44-.02c1.74,0,3.68-1.53,3.68-3.34l-.02-24.24c0-2.42-2.04-3.75-4.23-3.75l-37.7.02c-1.99,0-3.99,1.23-3.99,3.39v24.58c0,1.91,1.85,3.25,3.55,3.26l5.36.05c.54,0,1.36.71,1.37,1.27.04,3.27-.12,6.12.26,9.55l10.32-9.99ZM55.96,63.2c.2.18,1.11.05,1.24-.19.1-.18.3-.67.3-.94l.03-7.28,6.99-.17c1.83-.05,3.16-2.04,3.16-3.82l-.06-23.47c0-1.65-2.09-3.44-3.6-3.46l-12.98-.17-.14,6.57c-.06,2.85-2.67,5.52-5.64,5.54l-20.03.15-3.47,3.44.1,11.35c.02,2.48,1.77,3.93,4.09,3.93h20.58s9.42,8.51,9.42,8.51Z"/><path d="M27.41,25.92H11.34c-.49,0-1.09-.62-1.13-1.02-.06-.54.49-1.28,1.15-1.28h16.01c.4,0,1.09.68,1.15,1.05.06.43-.57,1.26-1.1,1.26Z"/><path d="M44.84,49.24h-16.07c-.49,0-1.09-.62-1.13-1.02-.06-.54.49-1.28,1.15-1.28h16.01c.4,0,1.09.68,1.15,1.05.06.43-.57,1.26-1.1,1.26Z"/><path d="M39.83,18.46H11.34c-.49,0-1.09-.62-1.13-1.02-.06-.54.49-1.28,1.15-1.28h28.44c.4,0,1.09.68,1.15,1.05.06.43-.57,1.26-1.1,1.26Z"/><path d="M39.86,11.22H11.36c-.49,0-1.09-.62-1.13-1.02-.06-.54.49-1.28,1.15-1.28h28.44c.4,0,1.09.68,1.15,1.05.06.43-.57,1.26-1.1,1.26Z"/><path d="M61.99,42.17H28.69c-.49,0-1.09-.62-1.13-1.02-.06-.54.49-1.28,1.15-1.28h33.25c.4,0,1.09.68,1.15,1.05.06.43-.57,1.26-1.1,1.26Z"/><path d="M62.07,34.94h-8.83c-.49,0-1.09-.62-1.13-1.02-.06-.54.49-1.28,1.15-1.28h8.77c.4,0,1.09.68,1.15,1.05.06.43-.57,1.26-1.1,1.26Z"/></svg>