<?xml version="1.0" encoding="UTF-8"?>
<svg id="Signature" xmlns="http://www.w3.org/2000/svg" viewBox="0 0 305 74.3">
  <path d="M168,31.07c-.63-1.67-6.09-.98-7.79-1.23-5.13-4.56-13.15-4.76-19.35-3.01.68-.9,1.22-1.56,1.89-2.31,3.95-4.37,7.25-9.14,9.63-14.54.59-1.34.79-2.83.35-4.13-1.03-3.04-5.2.47-6.41,1.62l-4.49,4.23c1.61-2.95,3.5-5.6,5.59-8.27.63-.8.97-2.39.06-2.88-3.94,2.88-9.43,14.64-11.78,18.1l-9.37,13.82c-2.62,3.86-13.47,23.49-12.27,28.29,2.23-.91,2.81-2.84,4.17-4.8.72,1.91,2.03,3.29,3.97,4.11,8.01,3.35,16.25,1.07,23.38-3.25,4.65-2.81,8.73-6.14,12.05-10.44,3.21-4.17,5.96-10.11,3.51-15.21,1.66-.25,7.35,1.21,6.86-.07ZM139.31,16.21c2.83-3.6,6.15-6.54,9.65-9.42.66-.54,1.51-.75,2.31-.53-.18,4.51-3.58,10.52-6.39,13.96-2.27,2.77-4.47,5.43-7.26,7.71-1.44,1.18-4.25.92-3.7,3.23.15.62,1.28,1.16,1.93.58,3.48-3.14,7.94-4.62,12.71-4.56,3.36.04,6.7.37,9.65,2.82-6.1.88-11.69,2.88-17.25,5.58-6.74,3.26-12.77,7.14-18.5,11.98l7.99-15.76,4.35-8.01c2.88,1.05,1.37-3.58,4.51-7.58ZM118.38,53.34l-2.14,3.81c1.02-4.03,2.34-7.67,4.13-11.45,3.87-8.2,8.38-16,13.98-23.1l-15.97,30.74ZM158.99,41.62c-2.26,4.56-5.61,8.3-9.68,11.37-7.7,5.8-17.72,10.15-27.04,5.69-2.25-1.08-3.16-3.33-2.02-5.6,3.23-6.4,13.2-12.73,19.58-15.92,6.36-3.18,12.31-5.7,19.52-6.07,1.97,2.95,1.12,7.55-.37,10.53Z"/>
  <path d="M263.9,25.57c.95-3.4-10.19,1.1-13.4,3.61l-3.6,2.81.98-2.45c.18-.44-.45-1.33-.85-1.43-.35-.09-1.06,0-1.48.22-4.77,2.43-9.4,4.73-14.3,6.82-1.79.76-3.4,1.21-5.43,1.08-.09-1.21.05-2.32.39-3.43l1.66-.25,4.78-3.09c.85-.55,1.17-1.51.78-2.48-.25-.61-1.31-1.16-2.18-.91-3.15.89-4,3.43-5.05,4.05l-6.32,3.73c.62-2.61,1.2-6.48-1.12-7.74-.86-.47-2.01-.53-2.88-.13l-2.2,1.02c-2.8-2.23-6.59,3.72-8.26,6.01-.24.33.03,1.22.36,1.45.3.22,1.09.24,1.36-.04,1.65-1.77,3.16-3.28,4.89-4.86l.84,1.03c1.78-1.16.25-3.12,3.91-3.54,3.62-.42,2.35,6.03,1.7,7.78-2.91,2.26-5.9,4.11-8.57,6.69-4.88,4.72-8.6,10.41-11.18,16.64-.86,2.07-1.45,6.51.52,7.14,2.43.78,5.25-3.14,6.65-5.16,3.11-4.49,5.93-8.97,8.74-13.66,2.15-3.58,3.64-7.2,4.79-11.2,1.87-1.22,3.75-2.3,5.5-3.16-.53,1.28-.84,2.46-.81,3.7.02,1.3,1.22,2.27,2.51,2.1,1.98-.26,3.65-1.04,5.43-1.86l13.64-6.29c-.1,2.19-4.1,5.79-2.3,6.61.73.33,1.27.03,1.74-.52,2.25-2.6,4.76-4.89,7.66-6.76,2.1-1.35,4.38-2.23,6.75-3.06,2.3-.81,3.95,1.02,4.38-.49ZM231.33,28.25c-.84.75-1.7,1.3-2.76,1.78.55-1.01,1.57-1.95,2.76-1.78ZM206.97,57.17c-1.36,1.64-4.79,7.32-7.15,6.82-.94-2.06-.52-4.33.32-6.46,2.29-5.87,5.86-11.16,10.5-15.5,2.32-2.17,4.75-3.82,7.43-5.74-2,7.24-7.09,14.63-11.09,20.88Z"/>
  <path d="M207.82,25.57c.95-3.4-10.19,1.1-13.4,3.61l-3.6,2.81,1-2.49c.16-.39-.47-1.28-.87-1.38-.35-.09-1.06,0-1.48.22-4.77,2.43-9.4,4.73-14.3,6.82-1.77.75-3.43,1.22-5.4,1.07-.16-1.14-.04-2.65.51-3.44,1.12-.19,1.91-.41,2.72-.96l3.9-2.63c.67-.45.78-1.63.37-2.36-.83-1.5-3.42-.57-4.41.39-2.48,2.39-4.71,5.03-4.85,8.4-.06,1.4,1.11,2.49,2.51,2.31,1.97-.25,3.65-1.04,5.43-1.85l13.64-6.29c-.1,2.2-4.11,5.78-2.3,6.61.73.33,1.27.03,1.74-.52,2.25-2.6,4.76-4.89,7.66-6.76,2.1-1.35,4.38-2.23,6.75-3.06,2.3-.81,3.95,1.02,4.38-.49ZM175.25,28.25c-.84.75-1.7,1.3-2.76,1.78.55-1.01,1.57-1.95,2.76-1.78Z"/>
  <path d="M280.58,30.84c.47-1.06-.05-2.75-1.31-2.77-.82,0-1.93-.05-2.69.08-3.18.56-5.75,2.31-8.57,3.74l-.13-3.82c-.03-.81,1.63.09,1.94-.72.08-.2-.05-.87-.19-1.04-.55-.65-1.8-.53-2.56-.1-.57.32-1.06,1.43-.95,2.31l.53,4.41-6.04,4.82c-.92.74-2.13,2.65-1.06,3.62,1.81,1.64,6.15-.91,7.61-4.66,1.46-3.74-.53-3.23,4.81-5.61,1.35-.6,2.62-1.12,4.03-1.41,1.62,1.44-.71,2.56-.8,5.05-.01.4,1,.83,1.38.75,1.43-.3,3.36-3.22,3.99-4.64ZM261.02,40.15c1.3-2.31,3.14-3.76,5.16-5.49l.12.5c-.6,2.5-2.42,4.6-5.28,4.99Z"/>
  <path d="M299.89,30.26c-.14-.21-.97-.28-1.18-.13-2.23,1.62-4.07,2.92-6.31,4.28-.87.53-2.44.9-3.33.36-1.59-.95,1.08-4.4.57-5.98-.49-.41-1.76-.46-2.28-.13l-2.47,1.57.99-1.55c.2-.32-.67-1.08-1.06-1.12-1.18-.12-1.73,2.15-2.35,3.09-1.45,2.2-3.05,4.03-4.83,6.04-.25.29,0,1.09.36,1.23.3.12.95-.15,1.23-.48,2.53-3.02,5.18-5.72,8.48-7.79l-.65,3.55c-.15.84.22,2.04.78,2.66,1.94,2.17,5.78-.44,7.69-1.75l4.11-2.83c.24-.17.42-.81.28-1.02Z"/>
  <path d="M111.76,29.98c-.82.36-7.01,2.97-7.25,1.9l-.17-.73c-.1-.45-.26-1.3-.65-1.34l-1.54-.16c-.5-.74-1.41-1.2-2.42-.57l-2.03,1.27c-2.33,1.46-7.22,5.78-9.41,4.42-1.65-1.02,1.1-4.09.45-5.96-.21-.61-1.85-.39-2.35-.06l-2.27,1.47.96-1.49c.15-.24-.38-.94-.64-1.05-1.48-.63-1.86,1.49-2.51,2.43l-3.87,2.07c-4.69,2.51-8.92,5.54-13.22,8.7l5.48-9.82c.43-.77.16-2.27-.62-2.7-1.88-1.03-4.19,2.86-6.33,3.45.51-1.58.97-2.73,1.19-4.08.15-.94-.66-1.77-1.56-1.75-.83.02-1.75.17-2.49.48l-5.83,2.44c-2.15.9-4.25,1.55-6.62,1.83.58-2.08-.02-1.5-2.33-3.55-1.62-1.44-4.51,1.36-5.57,2.68-2.3.07-4.46.48-6.77,1.19,3.32-7.43,7.05-15.91,7.69-23.9.18-2.24-1.14-4.05-3.39-4.42-1.25-.21-2.63.02-3.88.44-4.7,1.58-8.69,4.25-12.37,7.55-4.39,3.93-8.12,8.18-11.69,12.86-1.87,2.45-7.53,10.35-6.14,13.15.26.51,1.3.8,1.65.55.38-.27.35-.99.42-1.54.46-3.55,2.04-6.71,4.01-9.67,3.69-5.57,7.89-10.52,12.93-14.89,3.44-2.98,9.71-7.3,14.31-7.11,1.47.06,2.44,1.14,2.43,2.55-.02,2.64-.28,5.15-.93,7.74-1.51,6.07-3.76,11.79-6.5,17.3-9.46,3.82-16.54,8.53-22.1,17.02-1.86,2.84-5.91,9.49-3.15,12.64,3.13,3.57,9.15-2.4,11.25-4.85,6-7.02,10.45-15.58,14.66-23.74,2.1-.73,4.21-1.12,6.4-1.11-.1.62-.31,1.53-.15,1.94.4,1.05,2.05,1.42,2.89.84,1.34-.95,2.45-1.92,3.7-2.99.69,1.55,2.34,2.16,3.9,1.52l8.63-3.53c1.36-.56,2.59-.95,4.12-1.28.18,2.56-2.99,5.71-.75,6.51.43.15,1.5.3,1.89.02l4.63-3.37c-.59,2.4-1.63,4.4-2.81,6.51l-2.95,5.28c-8.35,6.86-15.37,14.96-20.94,24.21-.79,1.31-1.36,2.48-1.35,4.03,0,.4.36,1.16.7,1.26,1.54.47,5.6-3.62,6.75-4.88,2.26-2.5,4.23-5.06,6.04-7.93l10.21-16.17c1.52-2.41,13.12-9.44,16.54-10.82-.56,1.52-3.84,3.9-3.25,4.76.13.19.53.48.77.45.23-.02.73-.33.96-.6,2.55-3.04,5.17-5.7,8.41-7.7l-.66,3.77c-.19,1.08.46,2.27,1.23,2.8,2.4,1.65,6.39-1.64,8.48-2.96-.17.7-.5,1.79-.21,2.28.57.86,1.95.46,2.55-.19,1.29-1.41,2.62-2.7,4.01-3.99.47.93.88,1.67,1.57,1.98.7.31,1.63.28,2.44,0l6.29-2.25c.22-.08.33-.86.13-.98-.2-.12-.73-.26-.97-.15ZM20.37,51.47c-1.98,2.75-4.07,5.15-6.68,7.24-1.23.98-4.37,2.74-5.41,1.64-1.32-1.4-.34-5.18.44-6.9,3.28-7.27,8.81-13.04,15.78-16.9,2.17-1.18,4.14-2.3,6.58-3.13-3.23,6.51-6.62,12.38-10.71,18.05ZM41.67,31.62c.59-1.43,1.8-2.35,3.29-2.45-1.04.98-1.96,1.71-3.29,2.45ZM57.39,51.07c-3.1,5.52-10.5,17.9-16.54,20.21,1.64-3.35,3.13-6.43,5.18-9.44,4.14-6.07,8.79-11.58,14.41-16.21l-3.05,5.44ZM97.48,33.86c.61-1.56,1.74-3.03,3.64-3.34-1.08,1.34-2.22,2.36-3.64,3.34Z"/>
</svg>